<svg xmlns="http://www.w3.org/2000/svg" xmlns:xlink="http://www.w3.org/1999/xlink" width="500" height="500" viewBox="0 0 500 500">
  <defs>
    <style>
      .cls-1 {
        clip-path: url(#clip-e-Voucher_10);
      }

      .cls-2 {
        fill: url(#linear-gradient);
      }

      .cls-3 {
        fill: #f48100;
      }

      .cls-4 {
        fill: #f9d33f;
      }

      .cls-5 {
        fill: #f15c24;
      }

      .cls-6, .cls-9 {
        opacity: 0.169;
      }

      .cls-7 {
        opacity: 0.541;
        mix-blend-mode: soft-light;
        isolation: isolate;
      }

      .cls-10, .cls-8, .cls-9 {
        fill: #fff;
      }

      .cls-10 {
        font-size: 94px;
        font-family: BebasNeueBold, Bebas Neue;
      }

      .cls-11 {
        filter: url(#_10);
      }

      .cls-12 {
        filter: url(#_Path_);
      }
    </style>
    <linearGradient id="linear-gradient" x1="0.595" y1="0.229" x2="0.101" y2="1.174" gradientUnits="objectBoundingBox">
      <stop offset="0" stop-color="#124c9f" stop-opacity="0"/>
      <stop offset="1" stop-color="#ff21da" stop-opacity="0.82"/>
    </linearGradient>
    <filter id="_Path_" x="64.061" y="119.339" width="371.877" height="261.322" filterUnits="userSpaceOnUse">
      <feOffset input="SourceAlpha"/>
      <feGaussianBlur stdDeviation="3" result="blur"/>
      <feFlood flood-opacity="0.161"/>
      <feComposite operator="in" in2="blur"/>
      <feComposite in="SourceGraphic"/>
    </filter>
    <filter id="_10" x="176.427" y="184.434" width="144.637" height="145.488" filterUnits="userSpaceOnUse">
      <feOffset dy="3" input="SourceAlpha"/>
      <feGaussianBlur stdDeviation="3" result="blur-2"/>
      <feFlood flood-color="#f9bb3f"/>
      <feComposite operator="in" in2="blur-2"/>
      <feComposite in="SourceGraphic"/>
    </filter>
    <clipPath id="clip-e-Voucher_10">
      <rect width="500" height="500"/>
    </clipPath>
  </defs>
  <g id="e-Voucher_10" data-name="e-Voucher 10" class="cls-1">
    <ellipse id="Ellipse_58" data-name="Ellipse 58" class="cls-2" cx="212.989" cy="212.989" rx="212.989" ry="212.989" transform="translate(37 37)"/>
    <g id="Layer_1" data-name="Layer 1" transform="matrix(0.998, -0.07, 0.07, 0.998, 73.061, 152.011)">
      <g id="_Group_" data-name="&lt;Group&gt;" transform="translate(0 0)">
        <path id="_Path_2" data-name="&lt;Path&gt;" class="cls-3" d="M339.344,23.026V16.253c-113.115-56.3-226.23,56.3-339.344,0v6.934C5.9,26.913,10.476,33.7,10.476,39.834,10.476,45.942,5.9,49.154,0,47v4.151C5.9,54.875,10.476,61.665,10.476,67.8,10.476,73.9,5.9,77.116,0,74.962v4.15c5.9,3.727,10.476,10.517,10.476,16.648,0,6.108-4.572,9.32-10.476,7.165v4.15c5.9,3.726,10.476,10.516,10.476,16.648,0,6.107-4.572,9.32-10.476,7.164v4.151c5.9,3.726,10.476,10.516,10.476,16.647,0,6.107-4.572,9.32-10.476,7.165V163c5.9,3.726,10.476,10.516,10.476,16.648,0,6.107-4.572,9.32-10.476,7.164v6.823c113.115,56.3,226.229-56.3,339.344,0v-6.662c-6.664-3.324-12.067-10.77-12.067-17.447,0-6.652,5.4-10.01,12.067-6.686V159.01c-6.664-3.325-12.067-10.771-12.067-17.448,0-6.651,5.4-10.01,12.067-6.686v-3.83c-6.664-3.324-12.067-10.77-12.067-17.447,0-6.651,5.4-10.01,12.067-6.686v-3.83c-6.664-3.324-12.067-10.77-12.067-17.447,0-6.652,5.4-10.009,12.067-6.686v-3.83c-6.664-3.324-12.067-10.77-12.067-17.447,0-6.651,5.4-10.01,12.067-6.686v-3.83c-6.664-3.324-12.067-10.77-12.067-17.447C327.278,23.061,332.68,19.7,339.344,23.026Z" transform="translate(0 2.686)"/>
        <g class="cls-12" transform="matrix(1, 0.07, -0.07, 1, -62.28, -156.74)">
          <path id="_Path_3" data-name="&lt;Path&gt;" class="cls-4" d="M327.293,29.742c0,6.655,5.375,14.1,12.051,17.426V51c-6.676-3.329-12.051.048-12.051,6.676,0,6.69,5.375,14.13,12.051,17.46v3.835c-6.676-3.33-12.051.014-12.051,6.677,0,6.689,5.375,14.13,12.051,17.46v3.8c-6.676-3.329-12.051.048-12.051,6.711,0,6.69,5.375,14.1,12.051,17.426v3.834c-6.676-3.329-12.051.048-12.051,6.711s5.375,14.1,12.051,17.425v3.834c-6.676-3.329-12.051.048-12.051,6.677,0,6.689,5.375,14.131,12.051,17.46v16.946c-113.115-56.3-226.23,56.3-339.344,0V186.815c5.888,2.146,10.476-1.056,10.476-7.172S5.888,166.742,0,163.022v-4.177c5.888,2.181,10.476-1.056,10.476-7.138,0-6.14-4.588-12.934-10.476-16.656v-4.142c5.888,2.146,10.476-1.057,10.476-7.173C10.476,117.6,5.888,110.8,0,107.08v-4.142c5.888,2.146,10.476-1.056,10.476-7.173C10.476,89.626,5.888,82.831,0,79.11V74.968c5.888,2.145,10.476-1.056,10.476-7.172S5.888,54.894,0,51.174V47c5.888,2.146,10.476-1.056,10.476-7.138C10.476,33.719,5.888,26.924,0,23.2V16.254c113.115,56.3,226.229-56.3,339.344,0v6.779C332.668,19.7,327.293,23.081,327.293,29.742Z" transform="matrix(1, -0.07, 0.07, 1, 73.06, 152.01)"/>
        </g>
        <g id="_Group_2" data-name="&lt;Group&gt;" transform="translate(27.594 18.517)">
          <g id="_Group_3" data-name="&lt;Group&gt;" transform="translate(0 0)">
            <path id="_Compound_Path_" data-name="&lt;Compound Path&gt;" class="cls-5" d="M44.166,183.147c-2.8,0-5.6-.061-8.345-.181A160.748,160.748,0,0,1,.316,177.56L0,177.474V26.806l.54.147c1.783.484,3.6.942,5.414,1.362,1.785.414,3.609.8,5.421,1.153,1.787.346,3.613.667,5.428.952,1.788.282,3.616.537,5.433.76,3.548.435,7.207.764,10.877.978,3.547.206,7.209.311,10.886.311,2.023,0,4.1-.032,6.165-.094,2.021-.061,4.1-.153,6.165-.274,3.984-.232,8.131-.582,12.325-1.038,3.961-.431,8.1-.972,12.31-1.609,3.927-.595,8.061-1.3,12.286-2.083,3.931-.733,7.939-1.537,12.253-2.458,3.84-.82,7.834-1.715,12.21-2.735,8.124-1.894,16.325-3.935,24.255-5.909h.005C165.2,10.487,189.216,4.51,212.853,1.7c2.388-.284,4.769-.535,7.077-.747s4.622-.391,6.864-.532,4.491-.248,6.678-.318S237.85,0,239.989,0c2.8,0,5.6.061,8.346.181A160.739,160.739,0,0,1,283.84,5.587l.316.086V156.34l-.54-.147c-1.784-.484-3.605-.942-5.414-1.362-1.785-.414-3.609-.8-5.421-1.153-1.787-.346-3.613-.667-5.428-.952-1.787-.281-3.615-.537-5.433-.76-3.548-.435-7.207-.764-10.877-.978-3.547-.206-7.209-.311-10.886-.311-2.023,0-4.1.032-6.165.094-2.022.061-4.1.153-6.165.274-3.984.232-8.131.581-12.325,1.038-3.961.431-8.1.972-12.31,1.609-3.928.595-8.062,1.3-12.286,2.083-3.93.732-7.938,1.536-12.253,2.458-3.84.82-7.834,1.715-12.21,2.735-8.124,1.894-16.325,3.935-24.255,5.909l-.007,0h0c-23.225,5.78-47.24,11.757-70.874,14.564-2.39.284-4.771.535-7.077.747s-4.621.391-6.864.532-4.491.248-6.678.318S46.306,183.147,44.166,183.147ZM.856,27.925V176.819c1.769.476,3.578.927,5.375,1.34,1.772.407,3.583.789,5.382,1.135,3.52.676,7.148,1.244,10.782,1.686,3.523.429,7.156.753,10.8.963,3.521.2,7.157.306,10.806.306,2.022,0,4.1-.032,6.165-.094,2.021-.061,4.1-.153,6.165-.274,3.984-.232,8.131-.581,12.325-1.038,3.962-.431,8.1-.972,12.31-1.609,3.927-.595,8.061-1.3,12.286-2.083,3.93-.732,7.938-1.537,12.253-2.458,3.839-.82,7.833-1.715,12.21-2.735,8.122-1.893,16.32-3.934,24.248-5.907l.007,0h.006c23.225-5.78,47.241-11.758,70.877-14.565,2.389-.284,4.77-.535,7.077-.747s4.62-.391,6.864-.532,4.491-.248,6.677-.318,4.379-.106,6.518-.106c2.8,0,5.605.061,8.346.181a160.869,160.869,0,0,1,34.966,5.26V6.328c-1.77-.476-3.578-.927-5.375-1.34-1.772-.407-3.583-.789-5.382-1.135-3.521-.677-7.149-1.244-10.782-1.686-3.523-.429-7.156-.753-10.8-.963C247.442,1,243.806.9,240.157.9c-2.023,0-4.1.032-6.165.094-2.022.061-4.1.153-6.165.274C223.843,1.5,219.7,1.846,215.5,2.3c-3.962.431-8.1.972-12.31,1.609-3.928.595-8.061,1.3-12.286,2.083-3.93.732-7.938,1.536-12.253,2.458-3.84.82-7.834,1.715-12.21,2.735-8.121,1.893-16.318,3.933-24.246,5.906l-.009,0-.007,0C118.956,22.879,94.939,28.856,71.3,31.664c-2.388.284-4.769.535-7.077.747s-4.621.391-6.864.532-4.491.248-6.677.318-4.378.106-6.518.106c-2.8,0-5.605-.061-8.346-.181A160.869,160.869,0,0,1,.856,27.925Z"/>
          </g>
        </g>
        <g id="_Group_4" data-name="&lt;Group&gt;" transform="translate(38.578 59.485)">
          <g id="_Group_5" data-name="&lt;Group&gt;" transform="translate(0 0)">
            <path id="_Path_4" data-name="&lt;Path&gt;" class="cls-5" d="M6.848,126.1c0-1.306-1.548-2.284-3.188-3.318C1.861,121.646,0,120.47,0,118.623c0-1.864,1.963-2.432,3.7-2.933,1.9-.551,3.152-1,3.152-2.2,0-1.307-1.548-2.284-3.188-3.319-1.8-1.136-3.66-2.312-3.66-4.159,0-1.863,1.963-2.431,3.7-2.932,1.9-.551,3.152-1,3.152-2.2,0-1.306-1.548-2.284-3.188-3.319C1.861,96.424,0,95.249,0,93.4c0-1.864,1.963-2.432,3.7-2.933,1.9-.551,3.152-1,3.152-2.2,0-1.306-1.548-2.284-3.188-3.319C1.861,83.813,0,82.639,0,80.792c0-1.864,1.963-2.432,3.7-2.933,1.9-.551,3.152-1,3.152-2.2,0-1.308-1.548-2.284-3.188-3.319C1.861,71.2,0,70.028,0,68.182c0-1.864,1.963-2.432,3.7-2.933,1.9-.551,3.152-1,3.152-2.2,0-1.307-1.548-2.284-3.188-3.319C1.861,58.593,0,57.418,0,55.572c0-1.864,1.963-2.432,3.7-2.932,1.9-.552,3.152-1,3.152-2.2,0-1.306-1.548-2.284-3.188-3.318C1.861,45.984,0,44.809,0,42.963,0,41.1,1.963,40.53,3.7,40.029c1.9-.551,3.152-1,3.152-2.2,0-1.306-1.549-2.284-3.188-3.319C1.861,33.374,0,32.2,0,30.352c0-1.864,1.963-2.431,3.7-2.932,1.9-.551,3.152-1,3.152-2.2,0-1.306-1.548-2.284-3.188-3.318C1.861,20.764,0,19.589,0,17.743c0-1.864,1.963-2.431,3.7-2.933,1.9-.551,3.152-1,3.152-2.2,0-1.306-1.549-2.284-3.188-3.318C1.861,8.155,0,6.98,0,5.133,0,3.269,1.963,2.7,3.7,2.2,5.6,1.65,6.848,1.2,6.848,0H7.7c0,1.932-2,2.511-3.77,3.023C2.075,3.56.856,4,.856,5.133c0,1.375,1.658,2.422,3.261,3.434C5.88,9.68,7.7,10.831,7.7,12.609c0,1.932-2,2.512-3.77,3.023-1.858.537-3.077.975-3.077,2.11,0,1.375,1.658,2.422,3.261,3.434C5.88,22.291,7.7,23.441,7.7,25.219c0,1.932-2,2.512-3.77,3.023-1.858.538-3.077.975-3.077,2.11,0,1.375,1.658,2.422,3.261,3.434C5.88,34.9,7.7,36.051,7.7,37.829c0,1.932-2,2.512-3.77,3.023-1.858.538-3.077.975-3.077,2.111,0,1.375,1.658,2.421,3.261,3.434C5.88,47.509,7.7,48.661,7.7,50.439c0,1.932-2,2.511-3.77,3.023C2.075,54,.856,54.436.856,55.572c0,1.375,1.658,2.422,3.261,3.433C5.88,60.119,7.7,61.269,7.7,63.048c0,1.932-2,2.512-3.77,3.023-1.858.538-3.077.975-3.077,2.11,0,1.375,1.658,2.422,3.261,3.434C5.88,72.729,7.7,73.879,7.7,75.659c0,1.932-2,2.511-3.77,3.023-1.858.538-3.077.975-3.077,2.11,0,1.376,1.658,2.422,3.261,3.435C5.88,85.339,7.7,86.49,7.7,88.268c0,1.932-2,2.512-3.77,3.023C2.075,91.829.856,92.267.856,93.4c0,1.375,1.658,2.422,3.261,3.434C5.88,97.95,7.7,99.1,7.7,100.879c0,1.932-2,2.512-3.77,3.023-1.858.538-3.077.975-3.077,2.11,0,1.376,1.658,2.422,3.262,3.435C5.88,110.56,7.7,111.711,7.7,113.49c0,1.932-2,2.512-3.77,3.023-1.858.538-3.077.976-3.077,2.111,0,1.375,1.658,2.423,3.261,3.435C5.88,123.171,7.7,124.323,7.7,126.1Z"/>
          </g>
        </g>
        <g id="_Group_6" data-name="&lt;Group&gt;" transform="translate(291.351 31.525)">
          <g id="_Group_7" data-name="&lt;Group&gt;">
            <path id="_Path_5" data-name="&lt;Path&gt;" class="cls-5" d="M7.7,126.1H6.847c0-1.373-1.655-2.4-3.258-3.393C1.825,121.613,0,120.481,0,118.7c0-1.929,2-2.53,3.765-3.06,1.863-.559,3.082-1.012,3.082-2.151,0-1.373-1.657-2.4-3.258-3.393C1.825,109,0,107.87,0,106.089c0-1.928,2-2.529,3.765-3.06,1.863-.559,3.082-1.012,3.082-2.151,0-1.372-1.655-2.4-3.258-3.393C1.825,96.391,0,95.26,0,93.479c0-1.929,2-2.529,3.765-3.06,1.863-.56,3.082-1.011,3.082-2.151,0-1.373-1.657-2.4-3.258-3.393C1.825,83.781,0,82.649,0,80.869c0-1.929,2-2.529,3.765-3.06,1.863-.56,3.082-1.012,3.082-2.15,0-1.373-1.655-2.4-3.258-3.393C1.825,71.171,0,70.039,0,68.258,0,66.33,2,65.729,3.765,65.2c1.863-.559,3.082-1.012,3.082-2.15,0-1.373-1.655-2.4-3.258-3.393C1.825,58.561,0,57.429,0,55.648c0-1.929,2-2.529,3.765-3.06,1.863-.56,3.082-1.011,3.082-2.15,0-1.373-1.655-2.4-3.258-3.392C1.825,45.951,0,44.82,0,43.039c0-1.928,2-2.529,3.765-3.059,1.863-.559,3.082-1.012,3.082-2.151,0-1.372-1.655-2.4-3.258-3.393C1.825,33.342,0,32.21,0,30.429,0,28.5,2,27.9,3.765,27.37c1.863-.56,3.082-1.011,3.082-2.151,0-1.373-1.657-2.4-3.258-3.393C1.825,20.732,0,19.6,0,17.82c0-1.929,2-2.529,3.765-3.061,1.863-.559,3.082-1.011,3.082-2.149,0-1.373-1.655-2.4-3.258-3.393C1.825,8.122,0,6.991,0,5.21,0,3.281,2,2.68,3.765,2.151,5.627,1.591,6.847,1.139,6.847,0H7.7c0,1.86-1.961,2.45-3.692,2.97C2.1,3.542.856,4.008.856,5.21c0,1.3,1.547,2.264,3.184,3.28C5.841,9.606,7.7,10.761,7.7,12.61s-1.961,2.45-3.692,2.969C2.1,16.153.856,16.618.856,17.819c0,1.3,1.547,2.264,3.184,3.28,1.8,1.117,3.663,2.271,3.663,4.12s-1.961,2.45-3.692,2.97C2.1,28.762.856,29.227.856,30.429c0,1.3,1.547,2.264,3.184,3.28,1.8,1.117,3.663,2.271,3.663,4.12s-1.961,2.45-3.692,2.97C2.1,41.372.856,41.838.856,43.039c0,1.3,1.547,2.264,3.184,3.28,1.8,1.117,3.663,2.271,3.663,4.12s-1.961,2.449-3.692,2.969C2.1,53.981.856,54.446.856,55.648c0,1.3,1.547,2.264,3.184,3.279C5.841,60.045,7.7,61.2,7.7,63.049S5.742,65.5,4.011,66.018C2.1,66.591.856,67.057.856,68.258c0,1.305,1.547,2.265,3.184,3.28C5.841,72.655,7.7,73.81,7.7,75.659s-1.961,2.449-3.692,2.97C2.1,79.2.856,79.667.856,80.869c0,1.3,1.547,2.264,3.184,3.279,1.8,1.117,3.663,2.272,3.663,4.12s-1.961,2.45-3.692,2.97C2.1,91.811.856,92.277.856,93.479c0,1.3,1.547,2.264,3.184,3.28,1.8,1.117,3.663,2.271,3.663,4.12s-1.961,2.45-3.692,2.97c-1.906.573-3.155,1.039-3.155,2.24,0,1.3,1.547,2.264,3.184,3.28,1.8,1.117,3.663,2.272,3.663,4.121s-1.961,2.45-3.692,2.97C2.1,117.033.856,117.5.856,118.7c0,1.3,1.547,2.264,3.184,3.28C5.842,123.1,7.7,124.252,7.7,126.1Z"/>
          </g>
        </g>
        <path id="_Path_6" data-name="&lt;Path&gt;" class="cls-6" d="M129.548,23.415c0,6.656,5.375,14.1,12.051,17.426v3.834c-6.677-3.33-12.051.048-12.051,6.677,0,6.689,5.375,14.13,12.051,17.459v3.834c-6.677-3.329-12.051.014-12.051,6.677,0,6.689,5.375,14.131,12.051,17.46v3.8c-6.677-3.329-12.051.048-12.051,6.711,0,6.689,5.375,14.1,12.051,17.426v3.834c-6.677-3.33-12.051.048-12.051,6.71s5.375,14.1,12.051,17.426v3.834c-6.677-3.329-12.051.048-12.051,6.677,0,6.689,5.375,14.13,12.051,17.46v16.946C94.4,174.112,47.2,180.029,0,190.81c48.751-36.783,77.193-72.32,93.759-105.786a216.249,216.249,0,0,0,17-47.528A235.49,235.49,0,0,0,116.264,0,152.439,152.439,0,0,1,141.6,9.927v6.779C134.922,13.376,129.548,16.754,129.548,23.415Z" transform="translate(197.746 6.327)"/>
        <g id="_Group_8" data-name="&lt;Group&gt;" class="cls-7" transform="translate(28.022 20.596)">
          <path id="_Path_7" data-name="&lt;Path&gt;" class="cls-8" d="M0,17.479c3.536.389,7.072.766,10.608,1.049s7.072.5,10.608.627,7.071.181,10.608.156c1.768-.015,3.536-.042,5.3-.095s3.536-.12,5.3-.2c7.072-.341,14.144-.951,21.215-1.775s14.144-1.858,21.216-3.031,14.143-2.479,21.215-3.826,14.143-2.75,21.215-4.085c1.768-.339,3.535-.662,5.3-.994s3.536-.648,5.3-.958q5.3-.941,10.608-1.782T159.116,1.06C162.652.621,166.187.234,169.723,0c-3.536,1.382-7.072,2.665-10.608,3.93s-7.072,2.49-10.608,3.687-7.071,2.361-10.608,3.492c-1.768.568-3.536,1.119-5.3,1.67s-3.536,1.086-5.3,1.608q-10.608,3.165-21.215,5.748c-7.072,1.709-14.143,3.179-21.215,4.345s-14.144,2.03-21.216,2.49a167.339,167.339,0,0,1-21.215.1c-1.768-.1-3.536-.249-5.3-.415s-3.536-.374-5.3-.616q-5.3-.717-10.608-1.862t-10.608-2.8A107.277,107.277,0,0,1,0,17.479Z"/>
        </g>
        <path id="_Path_8" data-name="&lt;Path&gt;" class="cls-9" d="M246.668,0C187.486,64.959,128.3,154.342,69.122,219.768c-23.04,1.115-46.081-1.4-69.122-10.4C59.171,169.924,118.341,87.7,177.512,11.061,200.564,5.574,223.616.934,246.668,0Z" transform="translate(12.633 0.171)"/>
        <path id="_Path_9" data-name="&lt;Path&gt;" class="cls-9" d="M208.529,6.778c-59.17,43-118.341,126.718-177.511,202.8-10.34,2.363-20.679,4.492-31.017,6.13C59.182,143.769,118.364,55.739,177.545,0A154.728,154.728,0,0,1,208.529,6.778Z" transform="translate(110.616 1.145)"/>
      </g>
    </g>
    <g class="cls-11" transform="matrix(1, 0, 0, 1, 0, 0)">
      <text id="_10-2" data-name="$10" class="cls-10" transform="translate(197.26 290.19) rotate(-8)"><tspan x="0" y="0">$10</tspan></text>
    </g>
  </g>
</svg>
